<?xml version="1.0" encoding="UTF-8" standalone="no"?>
<!-- Created with Inkscape (http://www.inkscape.org/) -->

<svg
   width="1000"
   height="210"
   viewBox="0 0 1000 210"
   version="1.1"
   id="svg5"
   xml:space="preserve"
   inkscape:version="1.3.2 (091e20ef0f, 2023-11-25, custom)"
   sodipodi:docname="logo.svg"
   inkscape:export-filename="logo.png"
   inkscape:export-xdpi="96"
   inkscape:export-ydpi="96"
   xmlns:inkscape="http://www.inkscape.org/namespaces/inkscape"
   xmlns:sodipodi="http://sodipodi.sourceforge.net/DTD/sodipodi-0.dtd"
   xmlns="http://www.w3.org/2000/svg"
   xmlns:svg="http://www.w3.org/2000/svg"><sodipodi:namedview
     id="namedview7"
     pagecolor="#ffffff"
     bordercolor="#000000"
     borderopacity="0.25"
     inkscape:showpageshadow="2"
     inkscape:pageopacity="0.0"
     inkscape:pagecheckerboard="0"
     inkscape:deskcolor="#d1d1d1"
     inkscape:document-units="px"
     showgrid="false"
     inkscape:zoom="0.55518931"
     inkscape:cx="712.36963"
     inkscape:cy="200.8324"
     inkscape:window-width="1596"
     inkscape:window-height="873"
     inkscape:window-x="0"
     inkscape:window-y="23"
     inkscape:window-maximized="1"
     inkscape:current-layer="g2343"
     inkscape:export-bgcolor="#ffffffff" /><defs
     id="defs2" /><g
     inkscape:label="Camada 1"
     inkscape:groupmode="layer"
     id="layer1"
     transform="translate(233.4019,-185.26768)"><g
       id="g2343"
       transform="matrix(1.7957641,0,0,1.7957641,-203.71561,-49.721987)"><g
         id="g1"
         transform="matrix(0.73959247,0,0,0.73959247,-111.23799,60.153251)"><path
           style="font-weight:bold;font-size:38.4px;font-family:'Gill Sans MT';-inkscape-font-specification:'Gill Sans MT Bold';fill:#0d3c71;stroke-width:2.41588"
           d="m 335.00558,163.24689 c -0.46385,-5.8445 -1.66986,-9.5553 -4.54573,-13.35886 -5.19511,-6.86497 -13.5444,-10.66854 -23.65632,-10.66854 -19.1106,0 -30.98515,13.63718 -30.98515,35.53087 0,21.80093 11.78178,35.34534 30.61407,35.34534 16.88412,0 28.01651,-9.74084 28.85144,-25.23342 h -13.54441 c -0.9277,8.6276 -6.30835,13.54441 -14.93595,13.54441 -10.76131,0 -17.06966,-8.72037 -17.06966,-23.47079 0,-14.93595 6.58666,-23.84186 17.53351,-23.84186 8.07098,0 12.6167,3.89633 14.4721,12.15285 z m 39.33441,-24.0274 c -9.46253,0 -17.2552,3.15418 -23.00693,9.36976 -6.03005,6.49389 -9.46253,15.95642 -9.46253,26.06834 0,10.11192 3.43248,19.66722 9.46253,26.06835 5.8445,6.30835 13.45163,9.36976 23.0997,9.36976 9.64807,0 17.2552,-3.06141 23.09971,-9.36976 5.8445,-6.21559 9.46253,-16.0492 9.46253,-25.6045 0,-10.57577 -3.43249,-20.13107 -9.46253,-26.53219 -5.93728,-6.40112 -13.35887,-9.36976 -23.19248,-9.36976 z m 0.0928,11.87455 c 11.4107,0 18.64675,9.27699 18.64675,23.93463 0,13.91549 -7.51436,23.19248 -18.64675,23.19248 -11.31793,0 -18.64675,-9.27699 -18.64675,-23.56356 0,-14.28656 7.32882,-23.56355 18.64675,-23.56355 z m 43.04521,56.86795 h 26.43943 c 10.29745,0 16.79135,-2.41202 21.42984,-7.88544 5.28789,-6.30836 8.16375,-15.39981 8.16375,-25.97558 0,-10.483 -2.87586,-19.57445 -8.16375,-25.97557 -4.63849,-5.47342 -11.03962,-7.79267 -21.42984,-7.79267 H 417.478 Z m 13.91549,-11.59624 v -44.43678 h 12.52394 c 10.48299,0 15.67811,7.32882 15.67811,22.26477 0,14.84319 -5.19512,22.17201 -15.67811,22.17201 z m 67.07271,-17.53351 h 32.3767 V 167.236 h -32.3767 v -15.30703 h 34.97425 v -11.59624 h -48.88973 v 67.62926 h 50.55959 V 196.36575 H 498.4662 Z m 60.67154,0 h 29.59362 V 167.236 h -29.59362 v -15.30703 h 33.58273 v -11.59624 h -47.49821 v 67.62926 h 13.91548 z m 70.59783,-39.61275 c -9.46254,0 -17.25521,3.15418 -23.00694,9.36976 -6.03004,6.49389 -9.46253,15.95642 -9.46253,26.06834 0,10.11192 3.43249,19.66722 9.46253,26.06835 5.8445,6.30835 13.45164,9.36976 23.0997,9.36976 9.64807,0 17.25521,-3.06141 23.09971,-9.36976 5.8445,-6.21559 9.46253,-16.0492 9.46253,-25.6045 0,-10.57577 -3.43249,-20.13107 -9.46253,-26.53219 -5.93727,-6.40112 -13.35887,-9.36976 -23.19247,-9.36976 z m 0.0928,11.87455 c 11.4107,0 18.64676,9.27699 18.64676,23.93463 0,13.91549 -7.51437,23.19248 -18.64676,23.19248 -11.31792,0 -18.64675,-9.27699 -18.64675,-23.56356 0,-14.28656 7.32883,-23.56355 18.64675,-23.56355 z m 57.23903,30.05745 h 15.95643 c 6.03004,0 8.6276,2.41201 8.6276,7.97821 v 2.78309 c -0.0928,1.76263 -0.0928,3.43249 -0.0928,4.45296 0,6.40112 0.37108,8.34929 2.04094,11.59624 h 14.93595 v -2.50479 c -2.13371,-1.20601 -2.96864,-2.59756 -2.96864,-5.56619 -0.37107,-19.94553 -0.74215,-20.87323 -9.36976,-24.58403 7.60714,-2.96863 11.4107,-8.44206 11.4107,-16.69858 0,-5.38065 -1.8554,-10.29746 -5.10234,-13.63718 -3.06141,-3.15417 -7.32882,-4.63849 -13.08056,-4.63849 h -36.27303 v 67.62926 h 13.91548 z m 0,-11.59624 v -17.62628 h 16.79136 c 3.9891,0 5.56619,0.37108 7.32882,1.76262 1.66986,1.39155 2.50479,3.7108 2.50479,6.86498 0,3.24694 -0.83493,5.8445 -2.50479,7.23605 -1.57709,1.29878 -3.33972,1.76263 -7.32882,1.76263 z m 110.58178,2.04094 H 770.5603 v 11.59623 h 15.3998 c -0.37108,3.80357 -1.29878,6.12282 -3.33972,8.53483 -3.33971,4.08188 -8.53483,6.4939 -13.82271,6.4939 -11.31793,0 -19.29614,-9.83361 -19.29614,-23.7491 0,-14.56487 7.05051,-23.37801 18.92506,-23.37801 4.82403,0 8.90591,1.39155 11.96732,4.08187 1.94816,1.66986 2.96863,3.24695 4.17464,6.77221 h 13.08056 c -1.66986,-14.00826 -12.98779,-22.72863 -29.31529,-22.72863 -19.48168,0 -32.74778,14.37933 -32.74778,35.4381 0,20.50215 13.35887,35.43811 31.63454,35.43811 9.09145,0 15.21426,-3.24695 20.40938,-10.85408 l 1.66986,8.90591 h 8.34929 z m 27.45986,7.23605 h 32.37672 V 167.236 h -32.37672 v -15.30703 h 34.97428 v -11.59624 h -48.88976 v 67.62926 h 50.55962 v -11.59624 h -36.64414 z"
           id="text1161"
           aria-label="CODEFORGE" /><g
           id="g2331"
           transform="matrix(0.78879205,0,0,0.78879205,-10.291025,75.65261)"><path
             id="rect357"
             style="fill:#1359a9;stroke-width:0.659382"
             transform="matrix(0.84059817,0.54165923,-0.84059817,0.54165923,0,0)"
             d="m 201.06192,-107.69568 h 70.964 v 70.964006 h -70.964 z" /><path
             id="rect357-7"
             style="fill:#0d3c71;stroke-width:0.672863"
             d="m -378.98267,-364.97833 h 71.74401 v 73.0917 h -71.74401 z"
             transform="matrix(-0.84454713,0.53548123,0.00247473,-0.99999694,0,0)" /><path
             id="rect357-7-1"
             style="fill:#104d92;stroke-width:0.666608"
             transform="matrix(0.83805986,0.54557829,0.00353585,-0.99999375,0,0)"
             d="m 238.50862,-31.5765 h 70.41623 v 73.091942 h -70.41623 z" /><g
             aria-label="C"
             id="text2148"
             style="font-weight:bold;font-size:44.8px;font-family:'Gill Sans MT';-inkscape-font-specification:'Gill Sans MT Bold';fill:#ffffff"
             transform="matrix(1,0.40125455,0,1.1542993,-4.3784468e-6,-116.04647)"><path
               d="m 244.30546,153.04156 v 6.67187 q -5.73125,3.04063 -12.00937,3.04063 -8.1375,0 -12.97188,-4.48438 -4.8125,-4.50625 -4.8125,-11.09062 0,-6.58438 5.075,-11.17813 5.09688,-4.59375 13.3,-4.59375 6.54063,0 11.06875,2.69063 v 6.80312 q -5.55625,-3.12812 -10.52187,-3.12812 -4.87813,0 -7.98438,2.625 -3.08437,2.60312 -3.08437,6.65 0,4.06875 3.04062,6.71562 3.0625,2.64688 7.83125,2.64688 2.3625,0 4.55,-0.6125 2.1875,-0.63438 6.51875,-2.75625 z"
               id="path2267" /></g><g
             aria-label="F"
             id="text2152"
             style="font-weight:bold;font-size:44.8px;font-family:'Gill Sans MT';-inkscape-font-specification:'Gill Sans MT Bold';fill:#ffffff"
             transform="matrix(1,-0.57774946,0,1,0,166.94668)"><path
               d="m 299.48222,131.80093 v 5.6 h -13.43125 v 6.825 h 13.43125 v 5.6 h -13.43125 v 12.53438 h -7.6125 v -30.55938 z"
               id="path2270" /></g></g></g></g></g></svg>
