<?xml version="1.0" encoding="UTF-8" standalone="no"?>
<!-- Created with Inkscape (http://www.inkscape.org/) -->

<svg
   width="512"
   height="512"
   viewBox="0 0 512 512"
   version="1.1"
   id="svg5"
   xml:space="preserve"
   xmlns="http://www.w3.org/2000/svg"
   xmlns:svg="http://www.w3.org/2000/svg"><defs
     id="defs2" /><g
     id="layer1"><g
       id="g2343"
       transform="matrix(1.7957641,0,0,1.7957641,-203.71561,-49.721987)"><path
         style="font-weight:bold;font-size:38.4px;font-family:'Gill Sans MT';-inkscape-font-specification:'Gill Sans MT Bold';fill:#0d3c71"
         d="m 159.232,250.58806 c -0.192,-2.4192 -0.6912,-3.9552 -1.8816,-5.5296 -2.1504,-2.8416 -5.6064,-4.416 -9.792,-4.416 -7.9104,0 -12.8256,5.6448 -12.8256,14.7072 0,9.024 4.8768,14.6304 12.672,14.6304 6.9888,0 11.5968,-4.032 11.9424,-10.4448 h -5.6064 c -0.384,3.5712 -2.6112,5.6064 -6.1824,5.6064 -4.4544,0 -7.0656,-3.6096 -7.0656,-9.7152 0,-6.1824 2.7264,-9.8688 7.2576,-9.8688 3.3408,0 5.2224,1.6128 5.9904,5.0304 z m 16.28159,-9.9456 c -3.9168,0 -7.1424,1.3056 -9.5232,3.8784 -2.496,2.688 -3.9168,6.6048 -3.9168,10.7904 0,4.1856 1.4208,8.1408 3.9168,10.7904 2.4192,2.6112 5.568,3.8784 9.5616,3.8784 3.9936,0 7.1424,-1.2672 9.5616,-3.8784 2.4192,-2.5728 3.9168,-6.6432 3.9168,-10.5984 0,-4.3776 -1.4208,-8.3328 -3.9168,-10.9824 -2.4576,-2.6496 -5.5296,-3.8784 -9.6,-3.8784 z m 0.0384,4.9152 c 4.7232,0 7.7184,3.84 7.7184,9.9072 0,5.76 -3.1104,9.6 -7.7184,9.6 -4.6848,0 -7.7184,-3.84 -7.7184,-9.7536 0,-5.9136 3.0336,-9.7536 7.7184,-9.7536 z m 17.81759,23.5392 h 10.944 c 4.2624,0 6.9504,-0.9984 8.8704,-3.264 2.1888,-2.6112 3.3792,-6.3744 3.3792,-10.752 0,-4.3392 -1.1904,-8.1024 -3.3792,-10.752 -1.92,-2.2656 -4.5696,-3.2256 -8.8704,-3.2256 h -10.944 z m 5.76,-4.8 v -18.3936 h 5.184 c 4.3392,0 6.4896,3.0336 6.4896,9.216 0,6.144 -2.1504,9.1776 -6.4896,9.1776 z m 27.76323,-7.2576 h 13.4016 v -4.8 h -13.4016 v -6.336 h 14.4768 v -4.8 h -20.2368 v 27.9936 h 20.928 v -4.8 h -15.168 z m 25.11361,0 h 12.24961 v -4.8 h -12.24961 v -6.336 h 13.90081 v -4.8 h -19.66081 v 27.9936 h 5.76 z m 29.22237,-16.3968 c -3.9168,0 -7.1424,1.3056 -9.5232,3.8784 -2.496,2.688 -3.9168,6.6048 -3.9168,10.7904 0,4.1856 1.4208,8.1408 3.9168,10.7904 2.4192,2.6112 5.568,3.8784 9.5616,3.8784 3.9936,0 7.1424,-1.2672 9.5616,-3.8784 2.4192,-2.5728 3.9168,-6.6432 3.9168,-10.5984 0,-4.3776 -1.4208,-8.3328 -3.9168,-10.9824 -2.4576,-2.6496 -5.5296,-3.8784 -9.6,-3.8784 z m 0.0384,4.9152 c 4.7232,0 7.7184,3.84 7.7184,9.9072 0,5.76 -3.1104,9.6 -7.7184,9.6 -4.6848,0 -7.7184,-3.84 -7.7184,-9.7536 0,-5.9136 3.0336,-9.7536 7.7184,-9.7536 z m 23.6928,12.4416 h 6.6048 c 2.496,0 3.5712,0.9984 3.5712,3.3024 v 1.152 c -0.0384,0.7296 -0.0384,1.4208 -0.0384,1.8432 0,2.6496 0.1536,3.456 0.8448,4.8 h 6.1824 v -1.0368 c -0.8832,-0.4992 -1.2288,-1.0752 -1.2288,-2.304 -0.1536,-8.256 -0.3072,-8.64 -3.8784,-10.176 3.1488,-1.2288 4.7232,-3.4944 4.7232,-6.912 0,-2.2272 -0.768,-4.2624 -2.112,-5.6448 -1.2672,-1.3056 -3.0336,-1.92 -5.4144,-1.92 h -15.0144 v 27.9936 h 5.76 z m 0,-4.8 v -7.296 h 6.9504 c 1.6512,0 2.304,0.1536 3.0336,0.7296 0.6912,0.576 1.0368,1.536 1.0368,2.8416 0,1.344 -0.3456,2.4192 -1.0368,2.9952 -0.6528,0.5376 -1.3824,0.7296 -3.0336,0.7296 z m 45.77282,0.8448 h -11.2128 v 4.8 h 6.3744 c -0.1536,1.5744 -0.5376,2.5344 -1.3824,3.5328 -1.3824,1.6896 -3.5328,2.688 -5.7216,2.688 -4.6848,0 -7.9872,-4.0704 -7.9872,-9.8304 0,-6.0288 2.9184,-9.6768 7.8336,-9.6768 1.9968,0 3.6864,0.576 4.9536,1.6896 0.8064,0.6912 1.2288,1.344 1.728,2.8032 h 5.4144 c -0.6912,-5.7984 -5.376,-9.408 -12.1344,-9.408 -8.064,0 -13.5552,5.952 -13.5552,14.6688 0,8.4864 5.5296,14.6688 13.0944,14.6688 3.7632,0 6.2976,-1.344 8.448,-4.4928 l 0.6912,3.6864 h 3.456 z m 11.36639,2.9952 h 13.40161 v -4.8 H 362.0992 v -6.336 h 14.47681 v -4.8 H 356.3392 v 27.9936 h 20.92801 v -4.8 H 362.0992 Z"
         id="text1161"
         aria-label="CODEFORGE" /><g
         id="g2331"
         transform="translate(-3.5596181,20.48532)"><path
           id="rect357"
           style="fill:#1359a9;stroke-width:0.659382"
           transform="matrix(0.84059817,0.54165923,-0.84059817,0.54165923,0,0)"
           d="m 201.06192,-107.69568 h 70.964 v 70.964006 h -70.964 z" /><path
           id="rect357-7"
           style="fill:#0d3c71;stroke-width:0.672863"
           d="m -378.98267,-364.97833 h 71.74401 v 73.0917 h -71.74401 z"
           transform="matrix(-0.84454713,0.53548123,0.00247473,-0.99999694,0,0)" /><path
           id="rect357-7-1"
           style="fill:#104d92;stroke-width:0.666608"
           transform="matrix(0.83805986,0.54557829,0.00353585,-0.99999375,0,0)"
           d="m 238.50862,-31.5765 h 70.41623 v 73.091942 h -70.41623 z" /><g
           aria-label="C"
           id="text2148"
           style="font-weight:bold;font-size:44.8px;font-family:'Gill Sans MT';-inkscape-font-specification:'Gill Sans MT Bold';fill:#ffffff"
           transform="matrix(1,0.40125455,0,1.1542993,-4.3784468e-6,-116.04647)"><path
             d="m 244.30546,153.04156 v 6.67187 q -5.73125,3.04063 -12.00937,3.04063 -8.1375,0 -12.97188,-4.48438 -4.8125,-4.50625 -4.8125,-11.09062 0,-6.58438 5.075,-11.17813 5.09688,-4.59375 13.3,-4.59375 6.54063,0 11.06875,2.69063 v 6.80312 q -5.55625,-3.12812 -10.52187,-3.12812 -4.87813,0 -7.98438,2.625 -3.08437,2.60312 -3.08437,6.65 0,4.06875 3.04062,6.71562 3.0625,2.64688 7.83125,2.64688 2.3625,0 4.55,-0.6125 2.1875,-0.63438 6.51875,-2.75625 z"
             id="path2267" /></g><g
           aria-label="F"
           id="text2152"
           style="font-weight:bold;font-size:44.8px;font-family:'Gill Sans MT';-inkscape-font-specification:'Gill Sans MT Bold';fill:#ffffff"
           transform="matrix(1,-0.57774946,0,1,0,166.94668)"><path
             d="m 299.48222,131.80093 v 5.6 h -13.43125 v 6.825 h 13.43125 v 5.6 h -13.43125 v 12.53438 h -7.6125 v -30.55938 z"
             id="path2270" /></g></g></g></g></svg>
