<?xml version="1.0" encoding="UTF-8" standalone="no"?>
<!-- Created with Inkscape (http://www.inkscape.org/) -->

<svg
   width="500"
   height="510"
   viewBox="0 0 500 510"
   version="1.1"
   id="svg5"
   xml:space="preserve"
   inkscape:version="1.3.2 (091e20ef0f, 2023-11-25, custom)"
   sodipodi:docname="favicon.svg"
   inkscape:export-filename="logo.png"
   inkscape:export-xdpi="96"
   inkscape:export-ydpi="96"
   xmlns:inkscape="http://www.inkscape.org/namespaces/inkscape"
   xmlns:sodipodi="http://sodipodi.sourceforge.net/DTD/sodipodi-0.dtd"
   xmlns="http://www.w3.org/2000/svg"
   xmlns:svg="http://www.w3.org/2000/svg"><sodipodi:namedview
     id="namedview7"
     pagecolor="#ffffff"
     bordercolor="#000000"
     borderopacity="0.25"
     inkscape:showpageshadow="2"
     inkscape:pageopacity="0.0"
     inkscape:pagecheckerboard="0"
     inkscape:deskcolor="#d1d1d1"
     inkscape:document-units="px"
     showgrid="false"
     inkscape:zoom="0.78515625"
     inkscape:cx="101.25373"
     inkscape:cy="268.0995"
     inkscape:window-width="1596"
     inkscape:window-height="873"
     inkscape:window-x="0"
     inkscape:window-y="23"
     inkscape:window-maximized="1"
     inkscape:current-layer="g2343"
     inkscape:export-bgcolor="#ffffffff" /><defs
     id="defs2" /><g
     inkscape:label="Camada 1"
     inkscape:groupmode="layer"
     id="layer1"
     transform="translate(-55.377631,-4.522269)"><g
       id="g2343"
       transform="matrix(1.7957641,0,0,1.7957641,-203.71561,-49.721987)"><g
         id="g2331"
         transform="matrix(2.2722543,0,0,1.8686372,-306.28873,-62.333786)"><path
           id="rect357"
           style="fill:#1359a9;stroke-width:0.659382"
           transform="matrix(0.84059817,0.54165923,-0.84059817,0.54165923,0,0)"
           d="m 201.06192,-107.69568 h 70.964 v 70.964006 h -70.964 z" /><path
           id="rect357-7"
           style="fill:#0d3c71;stroke-width:0.672863"
           d="m -378.98267,-364.97833 h 71.74401 v 73.0917 h -71.74401 z"
           transform="matrix(-0.84454713,0.53548123,0.00247473,-0.99999694,0,0)" /><path
           id="rect357-7-1"
           style="fill:#104d92;stroke-width:0.666608"
           transform="matrix(0.83805986,0.54557829,0.00353585,-0.99999375,0,0)"
           d="m 238.50862,-31.5765 h 70.41623 v 73.091942 h -70.41623 z" /><g
           aria-label="C"
           id="text2148"
           style="font-weight:bold;font-size:44.8px;font-family:'Gill Sans MT';-inkscape-font-specification:'Gill Sans MT Bold';fill:#ffffff"
           transform="matrix(1,0.40125455,0,1.1542993,-4.3784468e-6,-116.04647)"><path
             d="m 244.30546,153.04156 v 6.67187 q -5.73125,3.04063 -12.00937,3.04063 -8.1375,0 -12.97188,-4.48438 -4.8125,-4.50625 -4.8125,-11.09062 0,-6.58438 5.075,-11.17813 5.09688,-4.59375 13.3,-4.59375 6.54063,0 11.06875,2.69063 v 6.80312 q -5.55625,-3.12812 -10.52187,-3.12812 -4.87813,0 -7.98438,2.625 -3.08437,2.60312 -3.08437,6.65 0,4.06875 3.04062,6.71562 3.0625,2.64688 7.83125,2.64688 2.3625,0 4.55,-0.6125 2.1875,-0.63438 6.51875,-2.75625 z"
             id="path2267" /></g><g
           aria-label="F"
           id="text2152"
           style="font-weight:bold;font-size:44.8px;font-family:'Gill Sans MT';-inkscape-font-specification:'Gill Sans MT Bold';fill:#ffffff"
           transform="matrix(1,-0.57774946,0,1,0,166.94668)"><path
             d="m 299.48222,131.80093 v 5.6 h -13.43125 v 6.825 h 13.43125 v 5.6 h -13.43125 v 12.53438 h -7.6125 v -30.55938 z"
             id="path2270" /></g></g></g></g></svg>
